<svg id="Layer_1" data-name="Layer 1" xmlns="http://www.w3.org/2000/svg" viewBox="0 0 90.328 94.742">
  <title>customize</title>
  <path d="M90.111,9.266A9.3,9.3,0,0,0,80.82,0h-.028L9.268.2A9.29,9.29,0,0,0,0,9.52L.22,85.474a9.3,9.3,0,0,0,9.295,9.268h.026l71.521-.2a9.294,9.294,0,0,0,9.266-9.319Zm-5.957,79.08a4.372,4.372,0,0,1-3.108,1.3h0l-71.521.2H9.515a4.4,4.4,0,0,1-4.4-4.382L4.9,9.508A4.4,4.4,0,0,1,9.282,5.1l71.524-.2h.014a4.4,4.4,0,0,1,4.393,4.385l.22,75.954a4.365,4.365,0,0,1-1.279,3.11" transform="translate(0 0)"/>
  <path d="M41.076,24.522a7.363,7.363,0,1,1-7.363-7.363,7.363,7.363,0,0,1,7.363,7.363" transform="translate(0 0)"/>
  <path d="M76.451,23.371h-32.5a6.292,6.292,0,0,1,.121,1.5c0,.511-.049.5-.121,1.5h32.5a1.5,1.5,0,0,0,0-3" transform="translate(0 0)"/>
  <path d="M23.351,24.871a6.347,6.347,0,0,1,.121-1.5H15.784a1.5,1.5,0,1,0,0,3h7.688c-.071-1-.121-.989-.121-1.5" transform="translate(0 0)"/>
  <path d="M68.076,47.022a7.363,7.363,0,1,1-7.363-7.363,7.363,7.363,0,0,1,7.363,7.363" transform="translate(0 0)"/>
  <path d="M50.351,47.871a6.347,6.347,0,0,1,.121-1.5H15.784a1.5,1.5,0,1,0,0,3H50.472c-.071-1-.121-.989-.121-1.5" transform="translate(0 0)"/>
  <path d="M76.451,46.371h-5.5a6.292,6.292,0,0,1,.121,1.5c0,.511-.049.5-.121,1.5h5.5a1.5,1.5,0,0,0,0-3" transform="translate(0 0)"/>
  <path d="M52.7,69.522a7.363,7.363,0,1,1-7.363-7.363A7.363,7.363,0,0,1,52.7,69.522" transform="translate(0 0)"/>
  <path d="M34.976,69.871a6.347,6.347,0,0,1,.121-1.5H15.784a1.5,1.5,0,1,0,0,3H35.1c-.071-1-.121-.989-.121-1.5" transform="translate(0 0)"/>
  <path d="M76.451,68.371H55.58a6.292,6.292,0,0,1,.121,1.5c0,.511-.049.5-.121,1.5H76.451a1.5,1.5,0,0,0,0-3" transform="translate(0 0)"/>
</svg>
