<svg id="Layer_1" data-name="Layer 1" xmlns="http://www.w3.org/2000/svg" viewBox="0 0 108.56 89.809">
  <title>find</title>
  <path d="M90,72.986V83.87L72,77.946V70.462a28.278,28.278,0,0,1-3-.7v7.567c0,.019-.143.036-.229.065L49,83.876V12.46c0-.022.25-.054.388-.1L69,5.711V19.224a28.279,28.279,0,0,1,3-.7V5.59l18,6.239v9.915c2,1.059,3,2.34,5,3.827V10.041a2.5,2.5,0,0,0-1.691-2.366L71.213.134a2.5,2.5,0,0,0-1.608,0L48.259,7.356,26.3.125a2.506,2.506,0,0,0-1.56,0L1.723,7.665A2.5,2.5,0,0,0,0,10.041V87.309a2.5,2.5,0,0,0,3.3,2.368l21.464-7.269,20.363,6.974a2.608,2.608,0,0,0,2.667.033L69.236,82.4l22.5,7.29A2.5,2.5,0,0,0,95,87.309V77.986ZM24,77.508,5,83.822V11.853L24,5.744Zm22,6.766L27,77.768V5.5l19,6.256Z" transform="translate(0 0)"/>
  <path d="M107.393,67.253l-6.61-6.61a4.008,4.008,0,0,0-4.9-.58l-2.418-2.419a21.394,21.394,0,1,0-3.71,3.706l2.421,2.421a4.005,4.005,0,0,0,.58,4.9l6.61,6.61a4.011,4.011,0,0,0,5.657,0l2.369-2.369a4.011,4.011,0,0,0,0-5.657M65.033,56.08a16.388,16.388,0,1,1,23.175,0,16.284,16.284,0,0,1-23.175,0" transform="translate(0 0)"/>
</svg>
