<svg id="Layer_1" data-name="Layer 1" xmlns="http://www.w3.org/2000/svg" viewBox="0 0 102.921 103.718">
  <title>schedule</title>
  <path d="M27.922,6.86H18.16a9.345,9.345,0,0,0-9.238,9.564V51.669a14.328,14.328,0,0,1,5-2.77V16.424A4.344,4.344,0,0,1,18.16,11.86h9.762Z" transform="translate(0 0)"/>
  <rect x="42.921" y="6.86" width="26" height="5"/>
  <path d="M93.725,6.86h-9.8v5h9.8a4.311,4.311,0,0,1,4.2,4.564V87.6a4.051,4.051,0,0,1-4.2,4.256H53.843c-.933,2-2.042,3-3.313,5H93.725a9.049,9.049,0,0,0,9.2-9.256V16.424a9.311,9.311,0,0,0-9.2-9.564" transform="translate(0 0)"/>
  <path d="M35.688,18.3c-1.381,0-2.5-.843-2.5-1.883V1.883C33.188.843,34.307,0,35.688,0s2.5.843,2.5,1.883v14.53c0,1.04-1.119,1.883-2.5,1.883" transform="translate(0 0)"/>
  <path d="M76.313,18.3c-1.381,0-2.5-.843-2.5-1.883V1.883C73.813.843,74.932,0,76.313,0s2.5.843,2.5,1.883v14.53c0,1.04-1.119,1.883-2.5,1.883" transform="translate(0 0)"/>
  <path d="M33.667,46.152H23.29a2,2,0,0,1-2-2V33.775a2,2,0,0,1,2-2H33.667a2,2,0,0,1,2,2V44.152a2,2,0,0,1-2,2" transform="translate(0 0)"/>
  <path d="M51.889,46.152H41.512a2,2,0,0,1-2-2V33.775a2,2,0,0,1,2-2H51.889a2,2,0,0,1,2,2V44.152a2,2,0,0,1-2,2" transform="translate(0 0)"/>
  <path d="M70.11,46.152H59.733a2,2,0,0,1-2-2V33.775a2,2,0,0,1,2-2H70.11a2,2,0,0,1,2,2V44.152a2,2,0,0,1-2,2" transform="translate(0 0)"/>
  <path d="M88.331,46.152H77.954a2,2,0,0,1-2-2V33.775a2,2,0,0,1,2-2H88.331a2,2,0,0,1,2,2V44.152a2,2,0,0,1-2,2" transform="translate(0 0)"/>
  <path d="M70.11,63.288H59.733a2,2,0,0,1-2-2V50.911a2,2,0,0,1,2-2H70.11a2,2,0,0,1,2,2V61.288a2,2,0,0,1-2,2" transform="translate(0 0)"/>
  <path d="M88.331,63.288H77.954a2,2,0,0,1-2-2V50.911a2,2,0,0,1,2-2H88.331a2,2,0,0,1,2,2V61.288a2,2,0,0,1-2,2" transform="translate(0 0)"/>
  <path d="M70.11,80.424H59.733a2,2,0,0,1-2-2V68.047a2,2,0,0,1,2-2H70.11a2,2,0,0,1,2,2V78.424a2,2,0,0,1-2,2" transform="translate(0 0)"/>
  <path d="M48.313,55.405a31.422,31.422,0,0,1,5.269,6.968,2,2,0,0,0,.34-1.085V50.911a2.073,2.073,0,0,0-2.033-2.052H41.511a2.015,2.015,0,0,0-1.418.617,31.289,31.289,0,0,1,8.219,5.929" transform="translate(0 0)"/>
  <path d="M26.23,103.719a26.228,26.228,0,1,1,18.547-7.682,26.06,26.06,0,0,1-18.547,7.682m0-47.45a21.211,21.211,0,1,0,15.012,6.208A21.167,21.167,0,0,0,26.23,56.269" transform="translate(0 0)"/>
  <path d="M39.983,75.86h-.011l-12.07.069-.088-12.245c-.007-.826-.677-1.824-1.5-1.824H26.3c-.828,0-1.5,1.006-1.488,1.835l.1,13.318a1.571,1.571,0,0,0,.951,1.435,1.539,1.539,0,0,0,.963.412h.011l13.157-.07a1.465,1.465,0,1,0-.011-2.93" transform="translate(0 0)"/>
</svg>
