<svg id="Layer_1" data-name="Layer 1" xmlns="http://www.w3.org/2000/svg" viewBox="0 0 100.132 96.252">
  <title>select</title>
  <path d="M55.944,17.4H22.487a1.5,1.5,0,0,1,0-3H55.944a1.5,1.5,0,0,1,0,3" transform="translate(0 0)"/>
  <path d="M75.271,27.7H62.94a1.5,1.5,0,0,1,0-3h12.33a1.5,1.5,0,0,1,0,3" transform="translate(0 0)"/>
  <path d="M34.423,27.7H22.488a1.5,1.5,0,0,1,0-3H34.423a1.5,1.5,0,0,1,0,3" transform="translate(0 0)"/>
  <path d="M88.407,53.269H66.557a2.5,2.5,0,0,1,0-5h21.85c3.645,0,6.725-2.191,6.725-4.785V9.786C95.132,7.192,92.052,5,88.407,5H11.724C8.079,5,5,7.192,5,9.786v33.7c0,2.594,3.079,4.785,6.724,4.785h19.5a2.5,2.5,0,0,1,0,5h-19.5C5.26,53.269,0,48.879,0,43.484V9.786C0,4.39,5.26,0,11.724,0H88.407c6.465,0,11.725,4.39,11.725,9.786v33.7c0,5.4-5.26,9.785-11.725,9.785" transform="translate(0 0)"/>
  <path d="M72.467,96.252a2.536,2.536,0,0,1-.509-.053,2.5,2.5,0,0,1-1.942-2.955l5.149-24.86a3.311,3.311,0,0,0-2.5-3.957L54.211,60.558a2.5,2.5,0,0,1-1.988-2.448V32.655a3.563,3.563,0,0,0-3.389-3.549,3.749,3.749,0,0,0-3.611,3.549V75.508A2.5,2.5,0,0,1,40.646,76.9L32.772,65.145a4.7,4.7,0,0,0-3.073-1.7,2.978,2.978,0,0,0-2.217.482,4.381,4.381,0,0,0-.494,5.631l16.1,22.522a2.5,2.5,0,0,1-4.068,2.908L22.934,72.482A9.319,9.319,0,0,1,24.34,60.035a7.831,7.831,0,0,1,6.012-1.548,9.748,9.748,0,0,1,6.518,3.794l3.353,5V32.655a8.5,8.5,0,1,1,17,0V56.08l16.471,3.452a8.317,8.317,0,0,1,6.367,9.87L74.913,94.258a2.5,2.5,0,0,1-2.446,1.994" transform="translate(0 0)"/>
</svg>
