<svg id="Layer_1" data-name="Layer 1" xmlns="http://www.w3.org/2000/svg" viewBox="0 0 102.427 100.539">
  <title>setup</title>
  <path d="M36.4,48.578A11.335,11.335,0,1,1,47.733,59.913,11.474,11.474,0,0,1,36.4,48.578m4.858-32.385c-.648,0-1.62.647-1.62,1.295l-1.3,8.744a24.449,24.449,0,0,0-5.5,3.238l-7.773-3.238a2,2,0,0,0-2.267.648L16.32,38.215c-.324.324,0,1.295.648,1.943l6.8,5.181c0,.972-.323,1.943-.323,3.239a10.005,10.005,0,0,0,.323,3.238l-6.8,5.506a1.525,1.525,0,0,0-.324,1.943L23.121,70.6a1.816,1.816,0,0,0,1.943.324l8.1-3.239a30.736,30.736,0,0,0,5.505,3.239l1.295,8.42a1.482,1.482,0,0,0,1.619,1.3H54.535c.648,0,1.619-.648,1.619-1.3l1.3-8.42a30.736,30.736,0,0,0,5.505-3.239l8.1,3.239A1.559,1.559,0,0,0,73,70.276l6.477-11.334c.323-.648.323-1.62-.324-1.943L71.7,51.816c0-.971.324-1.943.324-3.238a9.982,9.982,0,0,0-.324-3.239l6.8-5.505a1.525,1.525,0,0,0,.324-1.943L72.346,26.556a1.813,1.813,0,0,0-1.943-.324l-8.1,3.238A30.733,30.733,0,0,0,56.8,26.232l-1.3-8.42a1.3,1.3,0,0,0-1.3-1.619Z" transform="translate(-16.193 -16.193)"/>
  <path d="M94.883,54.151a6.556,6.556,0,0,1-2.569-9.123,7.39,7.39,0,0,1,9.67-2.373,6.557,6.557,0,0,1,2.57,9.124,7.416,7.416,0,0,1-9.671,2.372M91.767,29.973l-7.047,3.82c-.277.067-.406.657-.26,1.178l2.05,4.653c-.3.492-.784.888-1.19,1.545a5.7,5.7,0,0,0-.839,1.739l-5.4.767a.906.906,0,0,0-.784.889l-.053,7.676a1.121,1.121,0,0,0,.947.744l5.386.768a17.9,17.9,0,0,0,1.959,3.282L84.6,61.689a.853.853,0,0,0,.468,1.14l6.994,3.857c.35.193,1.077.154,1.28-.174l3.337-3.885a20.343,20.343,0,0,0,3.987,0l3.357,4.054a1.014,1.014,0,0,0,1.252.25l7.047-3.819c.377-.232.681-.725.433-1.082l-2.4-4.846c.305-.492.784-.888,1.19-1.545a5.664,5.664,0,0,0,.839-1.739l5.4-.767a.9.9,0,0,0,.784-.888l.053-7.677a1.122,1.122,0,0,0-.948-.743l-5.385-.769a17.93,17.93,0,0,0-1.959-3.281l1.938-4.656a.744.744,0,0,0-.192-1.207l-6.994-3.857c-.35-.193-1.077-.154-1.279.174l-3.439,4.048a16.192,16.192,0,0,0-3.986,0l-3.183-3.956a1.181,1.181,0,0,0-.914-.418,2.168,2.168,0,0,0-.512.07" transform="translate(-16.193 -16.193)"/>
  <path d="M71.2,101.456a7.97,7.97,0,1,1,3.937,1.063,7.725,7.725,0,0,1-3.937-1.063M67.938,72.848l-7.887,4.5c-.309.079-.458.776-.3,1.393L62,84.252c-.344.582-.881,1.05-1.34,1.826a6.949,6.949,0,0,0-.95,2.055l-6.021.9a1.061,1.061,0,0,0-.881,1.05l-.125,9.081a1.26,1.26,0,0,0,1.049.881l6,.922a21.379,21.379,0,0,0,2.154,3.886l-2.2,5.5a1.031,1.031,0,0,0,.512,1.349l7.763,4.579a1.213,1.213,0,0,0,1.428-.2l3.752-4.588a21.356,21.356,0,0,0,4.443.006l3.707,4.8a1.085,1.085,0,0,0,1.394.3l7.887-4.5c.423-.274.767-.856.493-1.279l-2.631-5.738c.343-.583.88-1.05,1.338-1.826a6.924,6.924,0,0,0,.95-2.055l6.022-.9a1.06,1.06,0,0,0,.881-1.049l.126-9.082a1.266,1.266,0,0,0-1.051-.88l-6-.922a21.446,21.446,0,0,0-2.155-3.886l2.2-5.5a.908.908,0,0,0-.2-1.429l-7.762-4.579a1.214,1.214,0,0,0-1.428.2l-3.867,4.782a16.953,16.953,0,0,0-4.443-.005l-3.513-4.688a1.281,1.281,0,0,0-1.018-.5,2.293,2.293,0,0,0-.57.084" transform="translate(-16.193 -16.193)"/>
</svg>
