<svg id="Layer_1" data-name="Layer 1" xmlns="http://www.w3.org/2000/svg" viewBox="0 0 96 101.945">
  <title>verify</title>
  <path d="M48.034,101.944a2.508,2.508,0,0,1-.776-.123l-2.593-.846-.009,0A76.122,76.122,0,0,1,12.944,81C4.6,71.952,0,62,0,52.983V16.28a2.5,2.5,0,0,1,1.292-2.19l4.251-2.345C6.362,11.281,26.477,0,48.129,0,69.983,0,89.71,11.33,90.539,11.813l4.181,2.336A2.5,2.5,0,0,1,96,16.331V52.983C96,62,91.4,71.952,83.057,81a76.006,76.006,0,0,1-31.646,19.968l-2.6.849a2.506,2.506,0,0,1-.775.123m-1.81-5.72,1.81.59,1.816-.593A70.9,70.9,0,0,0,79.38,77.616C86.873,69.489,91,60.741,91,52.983V17.8l-2.938-1.641C87.834,16.024,68.648,5,48.129,5,27.783,5,8.784,15.656,7.985,16.109L5,17.755V52.983c0,7.758,4.126,16.506,11.62,24.633a71.046,71.046,0,0,0,29.6,18.608" transform="translate(0 0.001)"/>
  <path d="M48,92.36a1.489,1.489,0,0,1-.471-.076C24.038,84.516,10,66.2,10,52.983V21.018a1.5,1.5,0,0,1,.739-1.293c.735-.431,18.2-10.576,37.458-10.576S84.555,19.3,85.273,19.733A1.5,1.5,0,0,1,86,21.018V52.983c0,13.219-14.038,31.533-37.529,39.3A1.489,1.489,0,0,1,48,92.36M13,21.9V52.983c0,15.13,18.075,30.525,35,36.295,16.925-5.77,35-21.165,35-36.295V21.889c-3.437-1.906-18.551-9.74-34.8-9.74C31.909,12.149,16.5,19.992,13,21.9" transform="translate(0 0.001)"/>
  <polygon points="38.671 66.023 23.976 53.21 28.576 47.935 38.671 56.736 67.424 31.669 72.024 36.944 38.671 66.023"/>
</svg>
